<svg width="32" height="32" viewBox="0 0 32 32" fill="none" xmlns="http://www.w3.org/2000/svg">
<path d="M19.7634 12.1444C20.2097 11.6981 20.9332 11.6981 21.3795 12.1444C21.8258 12.5907 21.8258 13.3141 21.3795 13.7604L17.6157 17.5235L20.3985 20.3062C20.6976 20.2307 21.0108 20.1905 21.3334 20.1905C23.4373 20.1905 25.1429 21.8961 25.1429 24C25.1429 26.104 23.4373 27.8095 21.3334 27.8095C19.2295 27.8095 17.5238 26.1039 17.5238 24C17.5238 23.0686 17.8586 22.2155 18.4137 21.5536L15.9997 19.1395L13.5863 21.5532C14.1417 22.2151 14.4762 23.0684 14.4762 24C14.4762 26.104 12.7706 27.8095 10.6667 27.8095C8.5628 27.8095 6.85718 26.1039 6.85718 24C6.85718 21.8961 8.5628 20.1905 10.6667 20.1905C10.9891 20.1905 11.3022 20.2308 11.6012 20.3062L14.3836 17.5235L10.6206 13.7604C10.1743 13.3141 10.1743 12.5907 10.6206 12.1444C11.0669 11.6981 11.7903 11.6981 12.2366 12.1444L15.9997 15.9074L19.7634 12.1444ZM10.6667 22.4762C9.82517 22.4763 9.1429 23.1585 9.14289 24C9.14289 24.8416 9.82517 25.5238 10.6667 25.5238C11.5083 25.5238 12.1905 24.8416 12.1905 24C12.1905 23.1584 11.5083 22.4762 10.6667 22.4762ZM21.3334 22.4762C20.4918 22.4763 19.8096 23.1585 19.8096 24C19.8096 24.8416 20.4918 25.5238 21.3334 25.5238C22.1749 25.5238 22.8572 24.8416 22.8572 24C22.8572 23.1584 22.1749 22.4762 21.3334 22.4762ZM21.7906 4.19049C22.625 4.19049 23.3196 4.18969 23.8851 4.23588C24.4639 4.28317 25.0077 4.3855 25.5216 4.64734C26.31 5.04907 26.951 5.69006 27.3527 6.47844C27.6146 6.99236 27.7169 7.5361 27.7642 8.11497C27.8104 8.68046 27.8096 9.37502 27.8096 10.2095V14.4252C27.8096 15.1221 27.8159 15.649 27.718 16.1094C27.3739 17.7282 26.1092 18.993 24.4904 19.3371C24.03 19.4349 23.503 19.4286 22.8062 19.4286C22.1751 19.4285 21.6634 18.9168 21.6634 18.2857C21.6634 17.6546 22.1751 17.143 22.8062 17.1429C23.6199 17.1429 23.8491 17.1365 24.0153 17.1012C24.751 16.9448 25.3257 16.37 25.4822 15.6343C25.5175 15.4681 25.5238 15.2391 25.5238 14.4252V10.2095C25.5238 9.33728 25.5231 8.75182 25.4863 8.30098C25.4505 7.86361 25.3865 7.65438 25.3163 7.51638C25.1336 7.158 24.8421 6.86641 24.4837 6.6838C24.3457 6.61352 24.1364 6.54951 23.6991 6.51378C23.2482 6.47696 22.6627 6.47621 21.7906 6.47621H10.2095C9.33734 6.47621 8.75183 6.47695 8.301 6.51378C7.86368 6.54952 7.6544 6.61351 7.51641 6.6838C7.15803 6.86641 6.86642 7.158 6.68382 7.51638C6.61354 7.65438 6.54953 7.86363 6.5138 8.30098C6.47697 8.75182 6.47623 9.33728 6.47623 10.2095V14.4252C6.47623 15.2391 6.48257 15.4681 6.51789 15.6343C6.67434 16.37 7.24912 16.9447 7.98478 17.1012C8.10944 17.1277 8.26948 17.138 8.68493 17.1414L9.19386 17.1429L9.25264 17.1444C9.85643 17.175 10.3367 17.6743 10.3367 18.2857C10.3367 18.8971 9.85643 19.3964 9.25264 19.4271L9.19386 19.4286L8.7013 19.4282C8.23766 19.4254 7.855 19.4105 7.50971 19.3371C5.89089 18.9929 4.62613 17.7282 4.28203 16.1094C4.18417 15.649 4.19051 15.1221 4.19051 14.4252V10.2095C4.19051 9.37502 4.18971 8.68045 4.2359 8.11497C4.2832 7.53611 4.38551 6.99235 4.64736 6.47844C5.04909 5.69006 5.69009 5.04908 6.47846 4.64734C6.99236 4.38549 7.53615 4.28318 8.11499 4.23588C8.68046 4.18969 9.37508 4.19049 10.2095 4.19049H21.7906Z" fill="white"/>
</svg>